<svg xmlns="http://www.w3.org/2000/svg" width="120" height="60" viewBox="0 0 120 60" fill="none">
  <path d="M2.62227 1.00698H16.5074L20.7202 6.42347H6.1043V12.5278H20.3763C21.4653 13.3015 22.0099 14.3333 22.0099 15.6229V27.5306C22.0099 28.1611 21.1644 28.6769 19.4736 29.0781H6.62015L1.93446 24.0485H15.9485V17.5574H2.8802C1.24665 17.5574 0.42988 16.9125 0.42988 15.6229V3.02741C0.42988 1.96704 1.16068 1.29356 2.62227 1.00698Z" fill="white"/>
  <path d="M25.4103 0.963989H44.8838C46.2308 1.6518 46.9043 2.94144 46.9043 4.83291V15.6229L35.0396 23.0598V16.2247L40.671 12.5708V6.16554H30.9987V29.465L25.4103 33.076V0.963989Z" fill="white"/>
  <path d="M50.3487 1.00698H69.9512C71.1835 1.35088 71.771 2.31094 71.7137 3.88717V29.3361H65.8674V14.9781L56.1951 19.9217V32.9471L50.3487 29.594V17.4284L65.8674 9.04573V5.56371H56.1951V10.8942L50.3487 14.0753V1.00698Z" fill="white"/>
  <path d="M75.1152 0.963989H94.3308C95.5631 0.963989 96.3512 2.03869 96.6951 4.18809V11.582H90.6338V6.12255H80.8326V24.5214H91.1927L86.8079 29.68H77.1786C76.0609 29.68 75.3731 28.7486 75.1152 26.8858V0.963989Z" fill="white"/>
  <path d="M99.7097 0.963989H115.271L120 6.12255H105.642V11.0662H111.789L116.174 16.1817H105.642V24.3495H114.97L119.656 29.3361H99.7097V0.963989Z" fill="white"/>
  <path d="M0 43.066H2.98767V54.9521H7.58738L10.2956 57.252H0V43.066Z" fill="white"/>
  <path d="M12.974 43.066H22.7752C23.3914 43.2379 23.6852 43.718 23.6565 44.5061V57.2305H20.7333V50.0515L15.8972 52.5233V59.036L12.974 57.3595V51.2767L20.7333 47.0853V45.3443H15.8972V48.0096L12.974 49.6001V43.066Z" fill="white"/>
  <path d="M25.4862 43.066H34.7071C35.3519 43.066 35.7961 43.374 36.0397 43.9902V48.203L33.6109 50.0515L36.0397 51.4701V57.2305H29.9784V54.7372H33.2025V51.6421L28.3234 49.7721V57.3165L25.4862 59.036V43.066ZM28.3234 45.5378V50.202L33.2025 47.8376V45.5378H28.3234Z" fill="white"/>
  <path d="M38.9836 43.066H45.9261L48.0325 45.7742H40.7246V48.8264H47.8606C48.4051 49.2133 48.6774 49.7291 48.6774 50.3739V56.3278C48.6774 56.643 48.2546 56.9009 47.4092 57.1016H40.9825L38.6397 54.5868H45.6467V51.3412H39.1125C38.2958 51.3412 37.8874 51.0187 37.8874 50.3739V44.0762C37.8874 43.546 38.2528 43.2093 38.9836 43.066Z" fill="white"/>
</svg>